<svg width="368" height="380" viewBox="0 0 368 380" fill="none" xmlns="http://www.w3.org/2000/svg">
<path d="M125.54 290.2C128.874 289.02 132.29 288.083 135.76 287.4L136.18 288.94C136.227 289.122 136.338 289.28 136.492 289.386C136.646 289.493 136.834 289.54 137.02 289.52L150.76 287.92C154.54 279.3 161.48 266.24 161.58 266.04C161.48 262.78 161.58 260.04 161.58 256.92C153.72 259.84 139.18 265.38 131.58 268.92C131.408 269.03 131.275 269.193 131.2 269.383C131.125 269.573 131.111 269.782 131.16 269.98C131.16 269.98 131.3 270.48 131.48 271.2C127.76 271.2 116.62 270.66 113.94 273.2C113.523 273.78 113.319 274.486 113.36 275.2C113.2 277.96 114.58 299.4 116.78 305.7C117.92 309 120.32 308.64 121.96 305.48C123.858 300.722 125.077 295.718 125.58 290.62C125.58 290.36 125.52 290.38 125.54 290.2ZM123.24 272.3C125.68 272.1 126.44 272.14 131.68 271.98C132.62 275.54 134.56 282.86 135.56 286.6C132.031 287.146 128.549 287.955 125.14 289.02C124.078 283.503 123.443 277.913 123.24 272.3Z" fill="black"/>
<path d="M309.62 97.2599C310.12 96.5599 309.48 95.6599 308.94 94.9599C310.47 93.3868 312.167 91.985 314 90.7799C317.095 89.2377 319.923 87.2127 322.38 84.7799C323.4 83.7199 325.32 81.5399 324.6 80.2599C323.88 78.9799 322.6 78.8999 320.86 79.6399C321.613 78.8487 322.23 77.9356 322.68 76.9399C323.24 75.3799 321.92 74.1199 319.06 75.2799C320.1 73.6199 320.34 71.8799 318.58 71.0399C317.16 70.3599 315.08 71.9799 313.88 73.0399C311.523 75.0988 309.312 77.3174 307.26 79.6799C306 77.0399 304 73.9999 301.5 74.9599C299 75.9199 300.94 80.2199 302.22 82.5599L297.68 85.6999C296.993 85.3294 296.219 85.1567 295.44 85.1999C290.28 86.0799 266.58 104.12 264.18 104.12C262.34 104.12 236.06 91.5199 213.34 87.8799C213.297 87.7436 213.215 87.6228 213.105 87.5308C212.995 87.4388 212.862 87.3796 212.72 87.3599C208.757 86.6836 204.74 86.3825 200.72 86.4599C200.599 86.4683 200.48 86.5028 200.373 86.5614C200.265 86.6203 200.173 86.7018 200.1 86.7999H198.42C198.02 85.1799 196.54 81.4399 196.02 79.9999C197.38 78.8199 199.26 78.2199 200.24 76.3199C202.04 72.7999 201.96 66.6799 201.46 62.7599C203.72 61.0399 203.78 58.2799 203.26 55.4599C203.06 54.3199 202.44 51.7399 201.48 51.0999C200.94 50.7399 199.8 51.0999 198.82 51.4599C197.84 49.1799 197.84 50.2199 198.24 49.2999C198.427 48.8759 198.535 48.4221 198.56 47.9599C199.62 48.2799 201.82 46.1599 201.06 43.3599C200.662 42.3577 200.173 41.3938 199.6 40.4799C199.88 39.7999 200.48 38.9799 198.6 36.4799C197.79 35.6065 196.739 34.9938 195.58 34.7199H194.66C193.997 33.7567 193.022 33.0505 191.9 32.7199C190.207 32.2879 188.41 32.5396 186.9 33.4199C186.5 33.7199 186.18 34.1199 185.78 34.3999C184.875 33.8508 183.839 33.5607 182.78 33.5607C181.722 33.5607 180.685 33.8508 179.78 34.3999C179.25 34.6076 178.768 34.9203 178.363 35.3188C177.959 35.7178 177.637 36.1941 177.42 36.7199C176.44 36.3817 175.4 36.2516 174.367 36.3378C173.335 36.4239 172.33 36.7243 171.42 37.2199C167.965 39.0934 165.38 42.245 164.22 45.9999C164.188 46.5661 164.188 47.1338 164.22 47.6999H164C161 47.2599 157.18 54.3799 160.24 59.9199C160.6 60.5799 161.06 61.1999 161.5 61.9199C162.78 63.9199 162.28 64.5199 165.14 66.9599C165.98 67.6799 166.12 67.6199 166.64 68.0599C167.16 68.4999 166.96 68.2799 167.26 69.3999C167.423 70.0596 167.717 70.6807 168.122 71.2265C168.527 71.7723 169.037 72.2323 169.62 72.5799C169.833 74.5363 170.667 76.3727 172 77.8199C172.422 78.2927 172.915 78.697 173.46 79.0199C173.607 79.1028 173.772 79.1508 173.94 79.1599C174.54 82.8799 175.28 87.7199 175.6 89.7799L173.82 90.7399C171.492 91.677 169.227 92.7661 167.04 93.9999C166.868 94.1188 166.747 94.2967 166.7 94.4999C164.58 95.6199 162.58 96.6799 161.44 97.3599C145.56 106.78 100.46 168.88 100 171.72C99.9495 171.883 99.9495 172.057 100 172.22C100.647 173.252 101.434 174.187 102.34 175C102.061 175.51 101.725 175.985 101.34 176.42C97.34 179.04 91.3404 182.94 88.1204 186.42C87.8942 186.622 87.7247 186.878 87.6287 187.165C87.5324 187.452 87.5124 187.758 87.5709 188.055C87.6295 188.352 87.7644 188.628 87.9626 188.858C88.1607 189.087 88.4149 189.26 88.7 189.36C89.3 189.56 89.4004 189.5 93.3004 187.36C92.2284 188.3 91.3517 189.442 90.7204 190.72C90.4604 191.82 91.4604 192.46 92.7204 192.26C93.4291 192.073 94.104 191.777 94.7204 191.38C94.3593 191.937 94.1677 192.587 94.1677 193.25C94.1677 193.913 94.3593 194.563 94.7204 195.12C96.7204 197.64 101.96 189.7 104.72 187.74C105.84 189.16 107.36 192.48 109.78 191.6C111.88 190.82 109.58 186.2 109.78 184.86C110.594 184.078 111.463 183.357 112.38 182.7C113.923 183.843 115.687 184.655 117.56 185.08C120.86 185.08 155.3 150.32 157.92 147.54C156.98 156.38 152.24 194.32 153.24 201.7C153.7 205.04 161.72 205.52 165.1 205.7C164.08 229.7 163.4 266.06 163.22 266.44C157.92 277.86 156.48 280.98 154.7 284.44C151.46 290.64 137.82 313.52 136.28 318.72C136.06 319.54 136.04 319.86 136.9 321.38C134.323 324.09 131.931 326.97 129.74 330C128.64 332 133.36 350.64 136.7 357.24C137.46 358.72 138.7 361 140.36 360.942C145.36 360.76 145.34 342.8 145.2 337.78C145.199 337.625 145.143 337.477 145.04 337.36C145.947 336.007 146.935 334.712 148 333.48C148.636 333.918 149.305 334.305 150 334.64C150.68 334.94 151.44 334.42 152 333.96C158.66 328.72 194.58 283.96 202.28 262.84C205.78 253.2 210.44 239.88 211.76 230.44C212.567 224.472 212.642 218.427 211.98 212.44C211.98 212.355 212.013 212.273 212.073 212.213C212.133 212.153 212.215 212.12 212.3 212.12C212.385 212.12 212.467 212.153 212.527 212.213C212.587 212.273 212.62 212.355 212.62 212.44C213.622 218.46 213.817 224.588 213.2 230.66C211.72 243.76 201.38 271.06 195.86 281.1C200.62 280.22 210.3 278.3 214.98 276.9C230.58 272.16 244.98 258.02 246.24 242.14C246.648 234.658 246.648 227.162 246.24 219.68C246.105 209.352 244.763 199.075 242.24 189.06C246.48 186.76 250.36 184.06 251.62 181.58C254.32 176.28 247.18 145.78 245.62 137.22C254.16 138.16 268.7 139.86 275.48 134.56C283.24 128.32 300 110.76 309.62 97.2599ZM144.12 336.68C140.52 334.5 135.48 329.32 134.72 325.26C135.54 324.22 136.4 323.26 137.2 322.18C139.911 326.317 143.29 329.973 147.2 333C146.102 334.165 145.073 335.393 144.12 336.68ZM303.12 83.1199C303.223 83.0541 303.299 82.9508 303.327 82.8319C303.357 82.7127 303.34 82.5868 303.28 82.4799C302.58 81.1799 300.48 76.5999 301.94 76.0799C302.78 75.7599 303.52 76.2799 304.14 76.9799C305.087 78.181 305.823 79.5334 306.32 80.9799C306.357 81.0974 306.425 81.2028 306.519 81.2847C306.61 81.3665 306.723 81.4214 306.843 81.4443C306.965 81.4668 307.09 81.4559 307.207 81.413C307.322 81.3701 307.423 81.2963 307.5 81.1999C309.5 78.9799 314.18 73.9199 316.82 72.5599C318.82 71.5199 319.3 73.4399 314.4 77.9199C313.275 78.7781 312.193 79.6927 311.16 80.6599C311.103 80.7385 311.072 80.833 311.072 80.9301C311.072 81.0268 311.103 81.1214 311.16 81.1999C311.16 81.7199 311.58 82.2999 312.3 81.7599C314.039 80.2337 315.877 78.8243 317.8 77.5399C318.782 76.8425 319.923 76.4021 321.12 76.2599C320.52 78.0999 314.94 83.0999 314.46 83.6599C314.308 83.7967 314.215 83.9872 314.202 84.1912C314.19 84.3952 314.257 84.5963 314.39 84.7508C314.525 84.9054 314.713 85.0014 314.917 85.0181C315.122 85.0348 315.323 84.9708 315.48 84.8399C317.7 83.3999 321.58 80.0399 322.92 80.5399C324.26 81.0399 320.28 84.7599 319.28 85.6399C313.54 90.6199 315.02 87.4199 308.38 94.1799C305.49 91.0137 302.172 88.2672 298.52 86.0199L303.12 83.1199ZM216.22 178.78C215.88 176.02 215.46 173.04 214.94 169.94L215.8 168.8C219.8 163.66 221 155.48 220.62 149.06C222.76 158.44 224.46 167.66 225.76 176.82L216.22 178.78ZM186.48 110.3C181.22 106.3 172.76 99.3999 167.84 94.6799L175.84 90.6799C183.187 97.5417 189.475 105.454 194.5 114.16C202.185 128.277 207.885 143.386 211.44 159.06L182.92 118.72L186.64 111C186.69 110.881 186.7 110.75 186.672 110.625C186.643 110.499 186.577 110.386 186.48 110.3ZM200 87.6199C200.12 87.8399 201.5 90.7799 203.6 95.9199C203.6 96.1399 203.22 101.14 203.04 102.9C200.487 101.888 198.08 100.543 195.88 98.8999C196.32 97.1599 198.3 89.2599 198.44 87.4799L200 87.6199ZM192.9 109.1C193.04 108.74 193.18 108.26 193.34 107.7L194.68 108.4C195.44 108.9 195.14 107.38 195.82 111.78C195.82 112.52 196.02 113.34 196.06 114.24C195.14 112.58 194 110.8 192.92 109.1H192.9ZM191.78 107.42C188.002 102.061 183.7 97.0897 178.94 92.5799L194 99.1199C193.42 100.5 192.58 104.72 191.8 107.42H191.78ZM207.16 119.14C205.16 113.68 203.62 107.58 202.86 105.98C202.905 105.481 202.905 104.979 202.86 104.48C203.15 104.588 203.452 104.655 203.76 104.68C203.953 104.682 204.14 104.614 204.287 104.489C204.435 104.365 204.532 104.191 204.56 104C204.72 103.34 204.98 99.9999 205.02 99.2599C210.839 113.949 215.695 129.001 219.56 144.32C208.26 120.28 210 127.24 207.18 119.14H207.16ZM223.7 157.32C219.14 135.46 211.12 108.2 202 87.9999C205.35 88.0018 208.693 88.2694 212 88.7999C213.7 104 212.28 103.48 213.42 104.08C214.56 104.68 221.42 107.44 222.44 107.86C222.34 109.4 223.78 153.44 223.72 157.32H223.7ZM200.68 52.3799C201.723 54.6552 202.09 57.1818 201.74 59.6599C201.577 60.2908 201.243 60.8639 200.773 61.3156C200.303 61.7676 199.719 62.0803 199.082 62.2192C198.447 62.3581 197.783 62.3177 197.168 62.1025C196.553 61.8872 196.012 61.5054 195.6 60.9999C194.645 58.9897 193.928 56.8756 193.46 54.6999C194 53.9999 199.76 52.5999 200.68 52.3799ZM173.16 72.3799C172.43 72.0472 171.682 71.7538 170.92 71.4999C170.408 71.2898 169.953 70.9654 169.587 70.5516C169.22 70.1377 168.953 69.6458 168.807 69.1127C168.66 68.5799 168.637 68.0207 168.74 67.4774C168.843 66.9345 169.068 66.4221 169.4 65.9799C170.66 64.9199 171.8 64.9799 172.84 66.5599C173.5 67.7799 173.48 67.8799 173.78 67.9999C173.867 68.0378 173.96 68.057 174.053 68.0559C174.147 68.0548 174.24 68.0338 174.325 67.9941C174.41 67.9545 174.487 67.8967 174.547 67.8254C174.608 67.7541 174.653 67.6705 174.68 67.5799C174.977 66.3283 175.023 65.0301 174.82 63.7599C174.58 62.3799 174.54 56.2599 174.58 56.0599C175.165 56.3679 175.82 56.513 176.48 56.4799C180.1 56.3399 180.82 54.4799 182.26 52.9599C183.92 53.1199 184.26 53.9199 186.14 52.9599C187.02 52.4592 187.828 51.8403 188.54 51.1199C189.115 51.3552 189.67 51.6363 190.2 51.9599C191.399 52.5363 192.75 52.7134 194.057 52.465C195.363 52.2167 196.557 51.5559 197.46 50.5799C197.68 50.9999 197.88 51.4199 198.06 51.8599C196.222 52.4305 194.492 53.3021 192.94 54.4399C192.6 54.8599 193.1 57.1399 193.22 57.6799C191.545 57.8908 189.923 58.413 188.44 59.2199C188.14 58.1799 187.48 56.2399 186.44 55.6999C186.127 55.6043 185.793 55.6043 185.48 55.6999C183.68 55.9799 177.22 57.9199 176.44 58.9799C175.76 59.7199 177.7 65.4399 178.3 66.3799C180.6 69.9399 187.34 68.8999 188.6 64.7399C188.912 63.3439 188.912 61.8959 188.6 60.4999C189.18 60.4999 190.92 59.8799 191.12 59.8199C192.5 62.9199 192.9 63.0999 194.5 66.4399C194.28 66.6199 193.92 66.9199 193.62 67.1199C192.2 68.0599 191.9 67.8999 191.98 68.2999C192.003 68.3792 192.055 68.4476 192.125 68.4916C192.195 68.5359 192.279 68.553 192.36 68.5399C193.2 68.4199 194.02 68.1916 194.8 67.8599C195.267 67.6858 195.652 67.3432 195.88 66.8999C196.44 65.6399 193.34 60.8999 192.12 59.4799C192.36 59.4799 192.92 59.0799 193.34 58.8599C193.9 61.0999 194.28 62.8599 196.44 63.7399C197.065 63.9756 197.73 64.0828 198.397 64.0556C199.063 64.0279 199.717 63.8661 200.32 63.5799C200.64 67.0999 200.58 72.8199 198.9 75.9399C198.04 77.5599 195.92 78.1799 194.56 79.5199C194.16 79.8999 194.42 80.4399 194.56 81.0199C196.78 87.1999 196.82 87.1799 196.7 87.9799C196.112 91.3003 195.29 94.5752 194.24 97.7799C193.74 97.5599 188.12 94.5799 177.12 90.2999C176.78 88.0399 174.96 75.9799 174.38 73.7599C174.42 72.9799 174.32 72.7999 173.16 72.2799V72.3799ZM187.16 64.2199C186.52 66.3999 183.5 67.3399 181.34 66.7399C179.18 66.1399 179.04 65.0399 178.02 62.4399C177.542 61.4468 177.212 60.3887 177.04 59.2999C177.7 58.5799 184.92 57.0999 185.82 56.9599C187.082 59.1196 187.557 61.6501 187.16 64.1199V64.2199ZM108.9 184.3C108.14 185.04 109.16 187.46 109.32 189.56C109.32 189.74 109.32 190.52 109.2 190.58C108.1 190.94 107.08 189.28 106.46 188.28C105.84 187.28 105.22 185.92 104.24 186.28C102.24 187.22 97.6 193.38 95.78 194.02C94.86 192.26 100.12 187.24 100.3 186.96C100.377 186.832 100.418 186.683 100.417 186.535C100.416 186.385 100.375 186.237 100.296 186.11C100.218 185.982 100.106 185.878 99.9727 185.808C99.8393 185.74 99.6898 185.71 99.5404 185.72C99.1804 185.72 98.94 186.04 98.38 186.54C96.6767 188.202 94.7273 189.592 92.6 190.66C94.5287 188.447 96.5927 186.357 98.78 184.4C98.8884 184.288 98.9644 184.15 99.0004 184C99.0004 184 98.5804 182.94 97.7604 183.36C96.6004 184 90.96 187.26 89.1804 188.1C88.9404 187.94 89.0804 187.7 89.1804 187.46C92 184 98.2004 179.8 102 177.14C102.446 176.68 102.817 176.155 103.1 175.58C105.732 178.028 108.539 180.282 111.5 182.32C110.588 182.918 109.719 183.58 108.9 184.3ZM155.44 202.48C155 202.2 154.68 201.94 154.62 201.58C153.52 193.42 159.64 147.18 159.54 145.36C159.54 145.253 159.519 145.148 159.477 145.049C159.437 144.951 159.375 144.862 159.299 144.787C159.222 144.713 159.132 144.654 159.032 144.615C158.933 144.576 158.827 144.557 158.72 144.56C157.7 144.56 159.5 144.56 134.02 168.96C132.34 170.54 119.5 182.82 117.36 183.64C114.42 183.42 103.36 174.6 101.56 171.82C105.04 164.78 147.24 106.86 161.84 97.9999C162.96 97.3199 164.88 96.2599 166.98 95.1399C167.707 95.825 168.488 96.4468 169.32 96.9999C173.96 101.4 180.42 106.88 185.32 111L181.5 118.58C181.442 118.68 181.412 118.794 181.412 118.91C181.412 119.026 181.442 119.14 181.5 119.24C212.52 163.74 212.06 163.24 212.26 163.24C214.248 173.523 215.485 183.937 215.96 194.4C215.96 197.22 215.96 196.98 216.08 196.78C216.2 196.58 216.08 196.92 216.08 196.92C211.24 202.2 163.34 207.12 155.44 202.48ZM266 136.22C256.94 137.48 246.7 135.6 244.72 135.52C243.62 130.188 241.427 125.142 238.28 120.7C238.232 120.635 238.162 120.591 238.082 120.576C238.003 120.561 237.922 120.577 237.853 120.62C237.785 120.663 237.735 120.73 237.713 120.808C237.693 120.886 237.702 120.969 237.74 121.04C238.9 123.4 242.78 133.58 243.74 136.06C243.44 137.02 252.78 175.64 250.14 180.84C247.78 185.54 234.04 191.46 229.08 193.16C228.1 182.025 226.497 170.955 224.28 160C224.96 154.24 224.08 120 223.82 107.34C223.812 107.193 223.763 107.051 223.679 106.931C223.593 106.81 223.477 106.717 223.34 106.66L214.36 102.88C214.32 98.1272 214.019 93.3799 213.46 88.6599C235.88 92.5399 262 105.36 264.18 105.38C267.34 105.38 290.82 87.3799 295.68 86.6599C297.84 86.3199 307.12 94.4199 308.2 96.6599C298.72 109.9 282.06 127.3 274.34 133.32C271.853 134.983 268.982 135.981 266 136.22Z" fill="black"/>
<path d="M185.1 60.2199C185.075 60.0887 185.025 59.9636 184.952 59.8519C184.878 59.7399 184.783 59.6436 184.673 59.5683C184.562 59.4934 184.438 59.4407 184.306 59.4134C184.177 59.3861 184.042 59.385 183.91 59.4101C183.778 59.4348 183.653 59.4854 183.542 59.5588C183.43 59.6323 183.333 59.7265 183.258 59.837C183.183 59.9476 183.13 60.0719 183.103 60.2028C183.077 60.3338 183.075 60.4687 183.1 60.5999C183.5 62.5999 183.58 63.0599 184.46 63.0599C184.626 63.0603 184.79 63.0196 184.937 62.941C185.083 62.8621 185.208 62.7483 185.298 62.609C185.39 62.4701 185.445 62.3105 185.46 62.1447C185.473 61.9788 185.446 61.8123 185.38 61.6599C185.32 61.3399 185.14 60.3999 185.1 60.2199ZM191.22 73.4599C192.52 73.8399 193.76 73.2199 193.72 72.8999C193.68 72.5799 193.72 72.7399 191.96 72.0799C190.78 71.6399 189.48 70.0799 189.02 70.3199C188.56 70.5599 189.26 71.8399 189.42 72.0799C189.848 72.729 190.482 73.2152 191.22 73.4599ZM227.8 54.4599C225.18 65.4399 223.26 74.7599 222.94 76.6199C222.726 77.429 222.686 78.2741 222.82 79.0999C223.88 81.3599 237.58 85.8199 239.32 84.9399C241.06 84.0599 245.58 73.8799 250.84 63.3799C254.062 63.4828 257.286 63.2483 260.46 62.6799C263.802 62.0668 267.053 61.0388 270.14 59.6199C276.9 56.4999 284.3 43.1399 285.3 36.4199C286.05 29.1239 284.505 21.776 280.88 15.4C264.1 -13.7001 214.88 1.95994 218.88 34.2799C220.022 41.6752 223.1 48.6374 227.8 54.4599ZM240 78.2799C240 78.5999 239.64 78.5599 238 78.2799C234.645 77.8585 231.397 76.821 228.42 75.2199C227.02 74.4599 226.64 74.2999 226.78 73.9599C226.92 73.6199 227.22 73.7399 229.38 74.3399C229.58 74.3399 235.78 76.3399 237.56 76.9599C239.86 77.9999 240 77.9999 240 78.2799ZM239.64 45.7399C241.775 45.8505 243.903 45.4101 245.82 44.4599C247.6 45.3225 249.526 45.845 251.5 45.9999C248.14 52.2599 241.32 65.0199 239.12 71.8199L230.64 69.4799C232.64 64.5599 237.06 53.0399 239.6 45.7399H239.64ZM238.94 44.0799C237.446 43.8545 236.068 43.1454 235.018 42.0618C233.966 40.9778 233.3 39.5792 233.12 38.0799C232.56 34.0799 235.12 29.5999 238.98 30.6599C241.4 31.3199 241.7 33.2399 241.28 35.6599C240.92 37.4199 239.62 41.8399 238.9 43.9999L238.94 44.0799ZM244.38 39.2799C244.593 37.9712 245.085 36.7232 245.82 35.6199C246.17 35.0185 246.682 34.5272 247.297 34.2021C247.912 33.8767 248.605 33.7305 249.3 33.7799C250.78 34.2199 251.42 37.0199 250.2 38.7799C249.026 40.3359 247.568 41.653 245.9 42.6599C245.325 42.3232 244.868 41.8188 244.59 41.2145C244.312 40.6105 244.223 39.9352 244.34 39.2799H244.38ZM226 13.86C234.96 3.07994 251.82 -1.20006 264 3.23994C270.617 5.51125 276.181 10.1101 279.66 16.18C283.108 22.2471 284.583 29.2367 283.88 36.1799C282.96 42.3999 275.88 55.3199 269.66 58.1799C263.973 60.7741 257.768 62.0327 251.52 61.8599C250.84 61.8599 250.12 61.8599 249.86 62.3399C248.68 64.7399 246.52 69.3799 244.4 73.7399C242.935 73.033 241.418 72.4443 239.86 71.9799C242.18 65.3399 249.5 52.2999 252.98 45.9799C255.995 46.2381 259.026 45.7148 261.78 44.4599C262.523 44.0683 263.14 43.4727 263.558 42.7425C263.975 42.0127 264.177 41.1788 264.137 40.3388C264.097 39.4992 263.817 38.6883 263.333 38.001C262.848 37.3141 262.178 36.7792 261.4 36.4599C258.3 34.9399 255.52 38.5799 253.9 41.6399C253.46 42.4399 252.96 43.3799 252.4 44.4399C250.782 44.3338 249.186 44.0039 247.66 43.4599C249.18 42.3908 250.53 41.0963 251.66 39.6199C252.293 38.6636 252.613 37.5345 252.578 36.3883C252.542 35.2418 252.152 34.1348 251.46 33.2199C250.917 32.589 250.162 32.1778 249.337 32.0636C248.512 31.9494 247.673 32.1403 246.98 32.5999C245.578 33.4607 244.457 34.7072 243.746 36.1901C243.038 37.673 242.772 39.3294 242.98 40.9599C243.197 41.8803 243.693 42.7116 244.4 43.3399C243.088 43.8832 241.68 44.1556 240.26 44.1399C241.06 41.7799 242.36 37.5199 242.7 35.7799C242.913 34.7879 242.96 33.7676 242.84 32.7599C242.685 31.8952 242.283 31.0934 241.683 30.4512C241.085 29.8087 240.312 29.3538 239.46 29.1399C234.6 27.7599 231.02 33.1399 231.72 38.1599C231.917 39.9589 232.69 41.6461 233.922 42.9719C235.153 44.2978 236.78 45.1912 238.56 45.5199C236 52.7199 232 64.3399 230 69.2999L225.6 68.1599C228.42 53.9999 228.76 54.3399 228.36 54.1599C223.815 48.3661 220.908 41.4596 219.94 34.1599C219.468 30.5403 219.765 26.8621 220.808 23.3648C221.852 19.8671 223.622 16.6286 226 13.86ZM253.76 44.5599C255.16 42.0199 257.96 36.4599 260.68 37.8199C261.223 38.0392 261.698 38.4028 262.05 38.8716C262.403 39.3403 262.62 39.8963 262.68 40.4799C262.64 43.9999 257.16 44.6199 253.68 44.5599H253.76ZM330.32 53.3799C332.73 51.9625 335.577 51.4785 338.32 52.0199C341.333 52.0738 344.212 53.2785 346.365 55.3872C348.52 57.4959 349.782 60.3483 349.898 63.3599C348.087 62.3087 345.968 61.913 343.9 62.2399C338.88 62.6799 332.32 65.3999 333.2 70.2399C333.92 74.2399 339.2 73.6999 343.2 72.6199C347.2 71.5399 350.378 69.5799 351.2 65.7199C356.058 69.2599 357.2 75.4599 357.4 81.5199C357.4 81.6047 357.433 81.6861 357.494 81.7461C357.553 81.8061 357.636 81.8399 357.72 81.8399C357.804 81.8399 357.887 81.8061 357.945 81.7461C358.007 81.6861 358.04 81.6047 358.04 81.5199C358.178 74.7399 356.96 68.0999 351.418 64.2399C351.476 62.5036 351.178 60.7738 350.549 59.1548C349.92 57.5363 348.964 56.0625 347.749 54.8225C346.532 53.5828 345.075 52.6032 343.468 51.9425C341.862 51.2821 340.137 50.9545 338.4 50.9799C335.623 50.5745 332.793 51.1549 330.4 52.6199C329.66 52.9799 330 53.5199 330.32 53.3799ZM348.56 67.7199C346.3 70.6799 339.9 72.2199 336.94 71.7199C335.84 71.5399 334.94 71.0799 334.7 69.9399C333.98 65.9399 340.88 63.7599 345 63.6199C346.677 63.4912 348.349 63.9203 349.76 64.8399C349.607 65.8858 349.196 66.8763 348.56 67.7199ZM321.16 29.9999C323.3 27.3599 321.86 22.76 315.88 22.74C313.56 22.74 312.44 25.1 312.6 27.3599C312.96 32.7399 319.02 32.5799 321.16 29.9999ZM314 27.2599C314 25.94 314.62 24.22 316 24.24C319.22 24.24 320.7 25.74 320.7 27.3999C320.62 31.1799 313.74 33.1399 314 27.2599ZM313.18 254C295.6 246.98 287.44 280.96 273.08 310.16C272.988 311.386 273.03 312.622 273.2 313.84C273.2 316.9 273.54 337.16 275.32 339.46C275.8 340.38 277.82 339.46 278.76 338.88C286.743 333.938 294.266 328.288 301.24 322C301.3 321.932 301.343 321.853 301.372 321.766C301.398 321.68 301.408 321.59 301.4 321.5C305.12 316.2 319.06 288.6 322.44 274.76C324.8 264.96 322.46 257.66 313.18 254ZM319.46 279.4C310.048 278.193 300.948 275.222 292.64 270.64C297.32 261.78 303.1 251.68 312.64 255.48C323.26 259.7 323.04 268.44 319.46 279.34V279.4ZM286.18 331.4C285.565 330.885 284.895 330.442 284.18 330.08C281.477 328.706 278.355 328.405 275.44 329.24C275.24 326.86 274.1 311.38 274.1 311.24C289.08 316.72 284.46 314.34 299.3 321.72C297.74 323.2 291.88 327.3 286.18 331.36V331.4ZM296.5 273.52C298.45 274.585 300.453 275.553 302.5 276.42C297.915 283.62 293.865 291.148 290.38 298.94C287.02 305.96 287.14 305.92 283.72 313.58C281.72 312.94 279.72 312.34 277.72 311.74C279.88 307.44 295.24 276 296.5 273.48V273.52ZM284.5 313.78C291 302.12 297.62 287.62 303.3 276.68C305.3 277.52 307.3 278.2 309.3 278.8C308.24 280.8 305.14 286.12 304.32 287.66C303.5 289.2 295.28 305.4 294.7 306.64C293.78 308.64 291.26 314.22 290.48 316C288.44 315.1 286.48 314.42 284.42 313.74L284.5 313.78ZM291.2 316.26C292.42 314.04 297.44 304.72 298.06 303.52C299 301.66 309.48 280.24 310.06 279C311.9 279.52 313.84 279.96 315.08 280.2C311.42 290.2 300.88 309.46 297.08 318.96C293.62 317.34 292.84 316.94 291.12 316.22L291.2 316.26ZM292.42 271.22L296 273.22C288.785 285.506 282.501 298.315 277.2 311.54L274.2 310.62C285.82 285.86 286.36 282.62 292.34 271.18L292.42 271.22ZM300.66 320.7L297.64 319.26C300.9 312.86 311.1 296.44 315.76 280.34C316.88 280.54 317.98 280.72 319.04 280.86C313.9 294.573 307.73 307.878 300.58 320.66L300.66 320.7ZM238 333.68C238.797 333.02 239.366 332.126 239.628 331.125C239.89 330.123 239.832 329.065 239.46 328.1C239.29 326.706 238.652 325.412 237.648 324.43C236.645 323.448 235.337 322.837 233.94 322.698C232.543 322.558 231.14 322.898 229.963 323.662C228.785 324.425 227.902 325.568 227.46 326.9C224.9 325.24 222.12 323.48 219.46 321.8C221.46 319.14 227.34 320.32 227.94 322.5C227.953 322.585 228 322.662 228.068 322.712C228.138 322.762 228.225 322.783 228.31 322.77C228.395 322.757 228.47 322.71 228.522 322.642C228.572 322.572 228.593 322.485 228.58 322.4C228.28 318.92 221.04 316.88 218.12 320.98C215.54 319.4 212.34 317.48 209.66 316.02C211.96 314.02 217.1 315.14 217.66 317.22C217.686 317.292 217.737 317.35 217.803 317.388C217.868 317.425 217.946 317.438 218.02 317.423C218.095 317.408 218.162 317.368 218.21 317.308C218.257 317.25 218.282 317.175 218.28 317.1C218.02 313.86 211.32 311.68 208.28 315.24C207.006 314.526 205.666 313.937 204.28 313.48C204.026 313.375 203.748 313.345 203.478 313.395C203.208 313.445 202.958 313.572 202.76 313.76C197.7 320.06 180.64 336.42 172.76 338.32C172.562 338.35 172.375 338.432 172.218 338.557C172.062 338.682 171.942 338.845 171.868 339.032C171.795 339.218 171.772 339.422 171.802 339.618C171.833 339.817 171.915 340.003 172.04 340.16C173.77 341.917 175.752 343.406 177.92 344.58C175.92 346.58 174.36 348.38 173.2 349.68C172.6 350.32 172.28 362.56 172.8 365.262C172.877 365.524 173.048 365.753 173.28 365.902C175.8 367.622 208.26 381.662 211.58 379.782C213.8 378.52 240.3 350.94 240.72 350.1C241.36 348.78 241.14 339.98 241.1 336.46C240.94 335.4 238.96 334.26 238 333.68ZM174 360.102V355.64C182.3 359.64 201.3 367.8 208.5 370.08C210.34 370.68 210.5 370.6 211.46 370.08C216.96 366.56 236.38 344.68 239.94 341.34V345.56C229.14 356.382 210.8 375.342 210.46 374.262C208.48 374.142 175.72 360.902 174 360.102ZM237.5 326.94C238.218 328.152 238.605 329.532 238.62 330.94C238.613 331.388 238.503 331.828 238.298 332.228C238.093 332.627 237.8 332.973 237.44 333.24C235.76 332.12 232.58 330.04 228.82 327.6C230.88 323.54 235.46 323.48 237.42 326.94H237.5ZM173.5 339.74C182.02 337.22 198.2 321.62 203.64 314.86C204.948 315.225 206.212 315.742 207.4 316.4C205.4 320.12 207.54 324.2 208.3 323.62C208.72 323.3 207.96 323.18 207.84 321.22C207.788 319.788 208.113 318.368 208.78 317.1C211.54 318.54 214.78 320.42 217.52 322C215.84 325.74 217.86 329.44 218.56 328.9C219.26 328.36 218.24 328.48 218.12 326.52C218.072 325.235 218.317 323.955 218.84 322.78C221.66 324.44 224.54 326.16 227.18 327.78C226.773 328.777 226.612 329.857 226.708 330.928C226.806 332 227.16 333.033 227.74 333.94C227.766 333.973 227.798 334.003 227.837 334.025C227.873 334.045 227.915 334.06 227.957 334.065C228 334.07 228.043 334.068 228.085 334.057C228.126 334.045 228.165 334.026 228.2 334C228.233 333.973 228.263 333.942 228.283 333.903C228.305 333.866 228.32 333.825 228.325 333.782C228.33 333.74 228.328 333.697 228.317 333.655C228.305 333.613 228.286 333.573 228.26 333.54C227.9 332.745 227.723 331.88 227.74 331.008C227.757 330.137 227.968 329.28 228.36 328.5C233.02 331.34 236.78 333.72 237.94 334.5C237.72 334.7 216.86 353.26 209.76 358.782C205.1 357.56 180.64 345.42 173.5 339.74ZM174.26 350.88C183.32 354.88 203.9 364.16 208.64 365.062C209.46 365.222 209.78 365.28 211.34 364.04C218 358.702 239.66 336.04 239.86 336.28C239.87 336.34 239.87 336.4 239.86 336.46V340.46C235.4 344.04 210.6 370.08 210.2 368.84C208.2 368.84 175.7 355.582 174.04 354.84C174 354 174.18 351.76 174.26 350.88ZM210.68 378.44C208.68 379.582 178.22 367.2 174.14 364.68C173.986 363.404 173.913 362.124 173.92 360.84C182.68 365.16 208.16 375.92 210.5 375.822C213.92 375.64 238.1 348.42 239.82 346.52C239.84 347.542 239.738 348.562 239.52 349.56C239.18 350.22 212 377.702 210.68 378.44ZM44.9792 265.7C45.1192 267.84 45.2192 269.7 45.2192 271.44C45.2192 271.705 45.3246 271.96 45.5119 272.146C45.6995 272.335 45.9537 272.44 46.2192 272.44C46.4843 272.44 46.7388 272.335 46.9261 272.146C47.1137 271.96 47.2192 271.705 47.2192 271.44C47.2192 269.58 47.1192 267.74 46.9792 265.56C46.9606 265.295 46.8374 265.048 46.6366 264.873C46.4359 264.698 46.1744 264.612 45.909 264.63C45.6439 264.648 45.397 264.772 45.2225 264.972C45.0479 265.173 44.9606 265.435 44.9792 265.7ZM349.72 225.6C349.589 225.608 349.462 225.642 349.342 225.698C349.225 225.757 349.12 225.837 349.036 225.937C348.949 226.035 348.884 226.15 348.844 226.273C348.804 226.398 348.789 226.53 348.8 226.66C348.92 228.5 349.04 230.48 349.04 232.4C349.04 232.665 349.145 232.92 349.334 233.106C349.52 233.295 349.774 233.4 350.04 233.4C350.305 233.4 350.56 233.295 350.745 233.106C350.934 232.92 351.04 232.665 351.04 232.4C351.04 230.4 350.92 228.4 350.778 226.52C350.771 226.39 350.738 226.262 350.68 226.145C350.622 226.026 350.542 225.922 350.444 225.837C350.345 225.75 350.229 225.685 350.105 225.645C349.982 225.605 349.851 225.588 349.72 225.6ZM39.7992 260.72C40.0643 260.72 40.3188 260.615 40.5061 260.426C40.6937 260.24 40.7992 259.985 40.7992 259.72C40.7992 259.455 40.6937 259.2 40.5061 259.013C40.3188 258.825 40.0643 258.72 39.7992 258.72C37.3792 258.72 35.3592 258.9 33.3592 258.86C33.0919 258.86 32.8355 258.965 32.645 259.152C32.4541 259.338 32.3443 259.593 32.3392 259.86C32.3392 260.125 32.4446 260.38 32.6319 260.566C32.8195 260.755 33.0737 260.86 33.3392 260.86C35.3992 260.9 37.6592 260.82 39.7992 260.72ZM343.52 219.68C341.12 219.68 339.1 219.82 337.08 219.84C336.815 219.84 336.56 219.945 336.373 220.133C336.185 220.32 336.08 220.575 336.08 220.84C336.08 221.105 336.185 221.36 336.373 221.546C336.56 221.735 336.815 221.84 337.08 221.84C339.24 221.84 341.48 221.84 343.64 221.68C343.905 221.663 344.153 221.543 344.33 221.345C344.505 221.146 344.595 220.885 344.58 220.62C344.563 220.355 344.443 220.106 344.245 219.93C344.045 219.753 343.785 219.663 343.52 219.68ZM44.4392 248.36C44.5592 250.2 44.6792 252.18 44.6792 254.1C44.6843 254.363 44.7912 254.615 44.9777 254.802C45.1639 254.988 45.4155 255.095 45.6792 255.1C45.9443 255.1 46.1988 254.995 46.3861 254.806C46.5737 254.62 46.6792 254.365 46.6792 254.1C46.6792 252.1 46.5592 250.1 46.4392 248.22C46.4206 247.955 46.2974 247.708 46.0966 247.533C45.8959 247.358 45.6344 247.272 45.369 247.29C45.1039 247.308 44.857 247.432 44.6825 247.632C44.5079 247.833 44.4206 248.095 44.4392 248.36ZM350.498 215.06C350.498 213.06 350.378 211.06 350.24 209.18C350.222 208.915 350.098 208.668 349.898 208.493C349.698 208.318 349.436 208.232 349.171 208.25C348.905 208.268 348.658 208.392 348.484 208.592C348.309 208.793 348.222 209.055 348.24 209.32C348.36 211.16 348.48 213.14 348.48 215.06C348.48 215.325 348.585 215.58 348.774 215.766C348.96 215.955 349.214 216.06 349.48 216.06C349.745 216.06 350.004 215.955 350.193 215.768C350.385 215.582 350.494 215.326 350.498 215.06ZM59.1992 260.46C59.3305 260.455 59.4595 260.423 59.5788 260.368C59.6981 260.313 59.8057 260.235 59.8948 260.138C59.9839 260.042 60.0534 259.93 60.0984 259.805C60.1439 259.682 60.1646 259.552 60.1592 259.42C60.1388 259.158 60.0206 258.913 59.8275 258.735C59.6348 258.558 59.3817 258.46 59.1192 258.46C56.6992 258.56 54.6792 258.64 52.6592 258.6C52.3937 258.6 52.1395 258.705 51.9519 258.893C51.7646 259.08 51.6592 259.335 51.6592 259.6C51.6592 259.865 51.7646 260.12 51.9519 260.306C52.1395 260.495 52.3937 260.6 52.6592 260.6C54.7992 260.64 57.0392 260.56 59.1992 260.46ZM362.92 219.42C360.92 219.52 358.698 219.58 356.48 219.58C356.349 219.575 356.218 219.597 356.091 219.643C355.967 219.69 355.858 219.762 355.76 219.852C355.665 219.943 355.589 220.053 355.538 220.175C355.487 220.297 355.458 220.428 355.458 220.56C355.458 220.826 355.564 221.083 355.753 221.275C355.938 221.465 356.193 221.575 356.458 221.58C358.738 221.58 360.578 221.58 363 221.42C363.131 221.415 363.258 221.383 363.378 221.328C363.498 221.273 363.607 221.195 363.694 221.098C363.785 221.002 363.854 220.89 363.898 220.765C363.945 220.642 363.964 220.512 363.96 220.38C363.934 220.12 363.814 219.878 363.622 219.702C363.433 219.523 363.182 219.423 362.92 219.42ZM13.239 201.2C13.499 201.4 69.8992 193.04 72.3192 191.56C72.4534 191.462 72.5603 191.332 72.6301 191.182C72.6999 191.032 72.7308 190.865 72.7192 190.7C72.7192 188.12 69.3392 163.9 67.7192 157.86C67.5192 157.12 67.3192 156.38 66.8592 156.12C63.7992 154.28 9.87907 164.44 6.65907 166.52C6.57187 166.572 6.49638 166.642 6.43787 166.723C6.37922 166.806 6.33889 166.9 6.31903 167C5.63903 169.42 11.499 200 13.239 201.2ZM7.53907 167.48C11.3791 165.74 60.3192 156.78 65.9192 157.48C67.2792 160.98 70.9192 186.62 71.1592 190.38C68.3792 191.2 13.9991 200.54 13.7991 200.58C13.5991 200.62 13.5791 200.86 13.1591 199.6C11.3991 194.32 7.43907 172 7.53907 167.48Z" fill="black"/>
<path d="M76.7192 193.34C76.8279 193.138 76.8767 192.908 76.8592 192.68C76.8592 189.5 72.2992 154.2 70.6792 151.38C70.5523 151.172 70.3727 151.001 70.1581 150.885C69.9439 150.769 69.7028 150.712 69.4592 150.72C62.7592 149.9 6.2392 160.94 2.5192 163.52C1.9992 163.88 2.0792 164.78 2.1392 165.74C2.4592 171 8.1392 205.6 10.1392 205.4C10.3592 205.4 10.2792 205.24 9.7592 206.3C6.6392 212.72 0.719199 233.28 0.839199 237.42C0.839199 239.16 1.2392 241.42 2.9592 241.3C15.2992 239.78 75.7992 230.18 93.1992 226.6C93.8792 226.46 94.3192 225.84 94.2992 224.82C94.0938 223.12 93.5788 221.473 92.7792 219.96C90.3392 215.38 80.2192 197.24 76.7192 193.34ZM10.2592 204.78C8.6992 202.78 2.9592 168.32 3.3992 164.5C7.7992 162.22 63.5592 151.44 69.3992 152.32C70.9992 156.72 75.1392 188.5 75.3992 192.32C68.3192 194.76 19.2992 202.68 10.2592 204.78ZM11.1392 205.38C12.8192 204.96 70.0392 195.38 75.2792 194C78.1392 196.66 91.0592 219.64 91.8992 221.6C80.4192 223.6 12.3192 234.98 2.2992 236.5C2.4392 230.44 8.6592 209.26 11.1392 205.38Z" fill="black"/>
<path d="M18.6602 226.12C20.4002 225.86 57.3202 221.42 70.6602 217.8C70.7424 217.778 70.8129 217.725 70.8562 217.653C70.8991 217.58 70.9115 217.492 70.8904 217.41C70.8689 217.328 70.8162 217.257 70.7427 217.215C70.6697 217.171 70.5824 217.158 70.5002 217.18C67.8802 217.72 35.9202 221.98 18.6202 225.5C18.5724 225.491 18.5232 225.493 18.4766 225.506C18.4299 225.52 18.3867 225.543 18.3506 225.577C18.3142 225.608 18.2859 225.648 18.2674 225.693C18.249 225.738 18.241 225.786 18.2442 225.835C18.2474 225.883 18.2614 225.932 18.2855 225.973C18.3095 226.015 18.3429 226.051 18.3829 226.078C18.423 226.106 18.4689 226.125 18.5169 226.132C18.5649 226.138 18.6139 226.135 18.6602 226.12ZM45.6402 86.9599C44.8929 88.6471 44.2649 90.385 43.7602 92.1599C43.7304 92.4446 43.8089 92.7304 43.9802 92.9599C46.0002 95.9999 66.7002 119.34 72.1002 122.62C72.8402 123.08 73.7202 123.4 74.2602 122.74C78.1827 117.859 83.3024 114.076 89.1202 111.76C93.8555 110.085 98.8202 109.147 103.84 108.98C107.84 108.62 108.54 108.22 110.08 105.6C111.897 102.152 114.307 99.0511 117.2 96.4399C120.889 93.2144 124.984 90.4846 129.38 88.3199C129.578 88.2079 129.733 88.0326 129.82 87.8224C129.907 87.6122 129.921 87.3791 129.86 87.1599C129.184 85.4395 128.29 83.813 127.2 82.3199C127.92 82.0799 128.72 81.8599 128.72 81.1399C128.72 79.1399 111.28 53.8999 106.44 49.1399C105.94 48.6399 105.22 47.9799 104.56 48.0199C94.5602 48.5799 84.8202 58.0199 79.1802 66.2599C72.7202 66.0199 68.5402 65.4399 61.1802 68.5399C55.9842 70.7453 51.2998 74.0002 47.4202 78.0999C46.8202 78.7199 42.7402 83.0399 42.6802 83.3799C42.6202 83.7199 42.7402 83.7199 45.6402 86.9599ZM125.64 86.3999C117.3 87.8199 111.98 94.7599 108.06 102.3C106.32 105.66 106.48 105.82 104.64 105.78C101.423 105.598 98.1951 105.718 95.0002 106.14C92.6566 106.49 90.3526 107.066 88.1202 107.86C83.0402 109.66 77.2202 115.42 74.1202 119.7C74.0544 119.788 73.9704 119.861 73.8744 119.914C73.7784 119.968 73.6722 120 73.5624 120.01C73.4529 120.019 73.3428 120.005 73.2388 119.969C73.1351 119.933 73.0402 119.875 72.9602 119.8C66.4602 113.1 54.9602 101.34 49.1802 94.5799C48.9002 94.2799 49.3802 93.8399 49.6602 94.1599C53.4002 98.1599 63.0602 107.74 73.4202 118.16C76.9202 113.7 82.3202 108.3 87.6602 106.42C90.5722 105.381 93.6024 104.709 96.6802 104.42C99.5628 104.201 102.458 104.201 105.34 104.42C106.52 103.06 112.36 87.6199 125.6 85.8999C125.639 85.9282 125.671 85.965 125.693 86.0075C125.716 86.05 125.729 86.097 125.73 86.145C125.733 86.193 125.723 86.241 125.705 86.285C125.685 86.3293 125.657 86.3682 125.62 86.3999H125.64ZM104.54 49.6399C108.54 52.4399 124.82 76.5399 126.94 80.7599C123.262 81.9253 119.71 83.4599 116.34 85.3399C113.149 86.9399 110.355 89.2311 108.161 92.0475C105.967 94.8639 104.43 98.134 103.66 101.62C96.4802 89.9399 86.4602 77.0799 79.8002 67.6199C80.2002 67.3599 91.4402 50.4199 104.54 49.6399ZM61.6202 69.6399C68.9202 66.6999 72.9602 67.3799 79.0002 67.6399C85.0002 77.8799 95.7802 92.3199 102.88 101.78C96.3271 100.229 89.4315 101.178 83.5402 104.44C80.0002 106.44 75.6802 111.24 73.0202 114.22C69.1802 111.14 47.0202 87.5399 43.4602 83.5399C48.9402 77.3399 54.0002 72.6799 61.6202 69.5599V69.6399ZM25.0202 120.5C24.526 120.153 23.9417 119.957 23.338 119.936C22.7344 119.914 22.1377 120.069 21.6202 120.38C21.2435 120.548 20.9031 120.789 20.6195 121.088C20.3354 121.388 20.1134 121.74 19.9657 122.126C19.8181 122.511 19.7477 122.922 19.7589 123.334C19.7699 123.747 19.8621 124.153 20.0302 124.53C20.1982 124.907 20.4391 125.247 20.7384 125.531C21.038 125.814 21.3904 126.037 21.7758 126.184C22.1613 126.332 22.5718 126.402 22.9846 126.391C23.3969 126.38 23.8035 126.288 24.1802 126.12C24.7824 125.988 25.3304 125.677 25.7511 125.226C26.1722 124.776 26.4464 124.209 26.5373 123.599C26.6286 122.99 26.5322 122.367 26.2613 121.814C25.9904 121.26 25.5577 120.802 25.0202 120.5ZM23.7002 124.5C22.3002 124.94 21.4602 124.5 21.1202 123.82C20.4802 122.4 21.2802 120.22 23.3602 120.86C24.8202 121.4 26.0002 123.86 23.7002 124.6V124.5ZM126.72 28.9799C127.3 30.1599 130 29.7199 131.18 29.3399C131.8 29.1399 132.2 28.9199 132.26 28.3199C132.44 26.8199 132.64 13.8199 131.96 12.5599C131.89 12.4277 131.782 12.3194 131.65 12.2482C131.519 12.1771 131.369 12.1462 131.22 12.1599C129.086 12.1539 126.963 12.4641 124.92 13.0799C124.1 13.5799 126 27.6599 126.72 28.9799ZM125.34 13.5599C127.188 13.2956 129.056 13.2086 130.92 13.2999C131.04 14.7799 130.72 27.5999 130.7 27.7999C129.855 28.1028 128.953 28.2122 128.06 28.1199C127.92 27.6599 127.68 26.4199 127.38 24.8599C126.499 21.1324 125.818 17.3602 125.34 13.5599ZM23.0802 103.62C23.2722 103.718 23.4846 103.769 23.7002 103.769C23.9158 103.769 24.1282 103.718 24.3202 103.62C25.0929 103.143 25.7057 102.447 26.0802 101.62C26.1311 101.487 26.1467 101.344 26.1257 101.204C26.1046 101.064 26.0478 100.932 25.9602 100.82C25.0002 99.6799 14.5202 87.5399 13.2402 88.2999C11.6686 89.3173 10.1775 90.454 8.7802 91.6999C8.72387 91.7504 8.67871 91.8119 8.64773 91.8806C8.61671 91.9497 8.60056 92.0242 8.6002 92.0999C8.5602 93.1399 20.2002 102.46 23.0802 103.62ZM13.4802 88.8199C14.9402 89.8799 19.8602 95.9599 24.4202 101.34C24.2242 101.649 23.9813 101.925 23.7002 102.16C18.9059 99.0915 14.3284 95.6966 10.0002 91.9999C11.0852 90.8606 12.2481 89.798 13.4802 88.8199ZM44.9002 44.6999C45.3402 36.9399 49.8602 33.3399 54.5802 32.4199C53.2402 37.3399 53.4602 43.7399 58.3202 44.5599C60.6402 44.9399 61.7802 43.7399 63.4602 42.3399C70.6402 36.3399 64.8402 30.3399 56.7402 30.7599C59.7602 22.4799 66.7402 15.7399 76.0002 15.5199C76.0849 15.5199 76.1664 15.4862 76.2264 15.4262C76.2864 15.3661 76.3202 15.2847 76.3202 15.1999C76.3202 15.1151 76.2864 15.0336 76.2264 14.9736C76.1664 14.9136 76.0849 14.8799 76.0002 14.8799C66.0002 14.6799 58.1402 21.8799 55.0402 30.8799C49.7002 31.7999 44.4002 35.7999 44.2602 44.5799C44.2522 44.622 44.2526 44.665 44.2617 44.7068C44.2704 44.7486 44.2875 44.7882 44.3115 44.8239C44.3358 44.8591 44.3664 44.8893 44.4024 44.9126C44.438 44.9359 44.4784 44.9522 44.5202 44.9599C44.5624 44.9679 44.6053 44.9671 44.6471 44.9584C44.6889 44.9497 44.7286 44.9326 44.7642 44.9086C44.7995 44.8842 44.8297 44.8537 44.8529 44.8177C44.8762 44.782 44.8922 44.742 44.9002 44.6999ZM56.2802 32.1799C59.2602 31.9799 63.7002 32.8999 64.9202 35.5999C65.6202 37.1399 64.9202 39.0399 62.4402 41.1199C61.7667 41.7944 60.9987 42.3671 60.1602 42.8199C57.1602 44.0999 53.8402 40.3999 56.2802 32.1799ZM62.0002 315.04C60.0678 314.522 58.0518 314.397 56.07 314.67C54.0882 314.943 52.1813 315.61 50.4613 316.632C48.7413 317.651 47.2427 319.006 46.0544 320.617C44.8657 322.225 44.0107 324.055 43.5402 326C42.6518 330.04 43.4042 334.266 45.6322 337.75C47.8602 341.235 51.3809 343.691 55.4202 344.58C59.4595 345.468 63.6864 344.717 67.1704 342.488C70.6551 340.26 73.1118 336.74 74.0002 332.7C74.3798 330.751 74.37 328.748 73.9711 326.803C73.5726 324.858 72.7929 323.013 71.6777 321.371C70.562 319.73 69.1326 318.325 67.4718 317.238C65.8107 316.151 63.9511 315.405 62.0002 315.04ZM68.1802 331.34C67.3777 334.54 65.4566 337.348 62.7642 339.255C60.0718 341.163 56.7857 342.045 53.5002 341.74C50.4842 340.562 47.9802 338.357 46.4293 335.515C44.8784 332.672 44.3791 329.373 45.0202 326.2C45.7686 322.922 47.6718 320.022 50.382 318.031C53.0922 316.042 56.4282 315.093 59.7802 315.36C62.826 316.618 65.3304 318.91 66.8522 321.833C68.374 324.757 68.8162 328.123 68.1002 331.34H68.1802Z" fill="black"/>
<path d="M88.64 320.74C86.8989 320.14 85.0328 319.995 83.22 320.32C82.4684 318.597 81.544 316.955 80.46 315.42C81.76 314.24 85.32 310.96 84.46 309.42C81.3993 305.758 77.7655 302.618 73.6997 300.12C72.0022 299.168 70.1331 298.563 68.2 298.34C66.92 298.52 63.8797 303.5 63.1997 304.62C62.7597 304.62 61.2 304.12 61.08 304.06C61.08 302.62 60.66 297.42 59.36 296.82C57.9062 296.285 56.3968 295.915 54.86 295.72C53.44 295.5 40.66 297.84 39.72 299.56C39.1 300.72 40.54 305.1 40.96 306.32C39.8815 306.913 38.8455 307.582 37.86 308.32C35.86 309.74 36.4 309.68 36.04 309.52C35.6048 309.312 35.1386 309.177 34.66 309.12C33.0622 308.183 31.1891 307.83 29.36 308.12C27.52 308.72 23.18 318.6 22.48 321.14C22.2509 321.78 22.1891 322.468 22.3 323.14C22.78 324.46 25.98 325.52 27.32 325.94C26.9499 328.513 26.9499 331.127 27.32 333.7C25.56 334.18 21.8997 335.26 22.0997 337.06C22.2997 338.86 26.9797 350.74 28.9197 351.68C29.9826 352.275 31.1579 352.64 32.3702 352.753C33.5826 352.867 34.8051 352.727 35.96 352.34C36.6102 352.015 37.2386 351.648 37.84 351.24C38.64 351.84 39.48 352.38 40.34 352.9C39.72 354.44 38.34 357.88 38.78 359.44C39 360.262 39.66 360.52 40.58 360.862C43.12 361.782 56.8 365.062 58.88 364.702C59.66 364.582 60.08 363.76 60.32 362.982C60.7644 361.204 61.0259 359.389 61.0997 357.56C62.1269 357.458 63.1484 357.305 64.16 357.102C64.7779 358.185 65.568 359.167 66.5 360C67.52 360.72 68.38 360.36 69.54 359.622C70.1 360.342 70.94 361.342 71.84 361.44C74.1 361.702 83.44 352.9 84.4 351.1C85.2 349.6 82.28 346.92 80.98 345.74C82.3862 343.623 83.4902 341.322 84.26 338.9C85.7026 339.117 87.1626 339.198 88.62 339.14C89.28 339.14 90.04 338.9 90.32 338.28C91.54 335.5 91.18 324.96 90.32 322.28C90.2 321.5 89.3 320.98 88.64 320.74ZM89.12 322.58C89.8 325.18 90.0197 335 89.0197 337.54C87.2906 337.71 85.5458 337.63 83.8397 337.3C83.6578 337.268 83.4706 337.306 83.3153 337.406C83.1597 337.507 83.0473 337.662 83 337.84C82.2037 340.543 80.9669 343.098 79.3397 345.4C79.224 345.553 79.1717 345.743 79.1942 345.935C79.2164 346.125 79.312 346.299 79.46 346.42C80.8633 347.532 82.0553 348.887 82.98 350.42C81.98 352.06 74.16 359.222 72 359.822C71.68 359.822 70.8 358.622 70.58 358.302C69.8411 357.189 69.1735 356.036 68.58 354.84C68.4935 354.665 68.3448 354.531 68.1637 354.462C67.9822 354.389 67.7811 354.389 67.5997 354.462C61.7997 356.64 59.6 355.36 59.6 356.8C59.6026 358.956 59.2513 361.098 58.5597 363.142C53.8597 362.629 49.2317 361.596 44.76 360.062C44.976 357.924 45.5717 355.844 46.52 353.92C47.12 352.58 44.72 352.96 40.24 348.4C40.0957 348.267 39.9066 348.192 39.7102 348.192C39.5135 348.192 39.3244 348.267 39.18 348.4C37.18 350.04 34.58 351.64 34.06 351.38C33.04 350.88 28.34 340.22 28.06 338.06C29.4826 337.068 31.0975 336.387 32.8 336.06C32.9815 336.008 33.1382 335.893 33.2415 335.735C33.344 335.577 33.3866 335.387 33.36 335.2C32.8699 332.368 32.8699 329.472 33.36 326.64C33.3906 326.465 33.3539 326.287 33.2575 326.139C33.1608 325.99 33.0117 325.883 32.84 325.84C31.332 325.445 29.8808 324.86 28.52 324.1C28.08 323.78 28.12 323.8 28.16 323.46C29.4546 318.792 31.5306 314.375 34.3 310.4C35.38 310.1 38.3 312.24 39.3 313C39.4044 313.102 39.5444 313.158 39.6899 313.158C39.8357 313.158 39.9757 313.102 40.08 313C40.9989 312.047 41.9884 311.165 43.04 310.36C46.08 308.06 46.9 308.36 46.64 307.56C45.7204 305.553 45.204 303.385 45.12 301.18C45.4299 300.922 45.7819 300.72 46.16 300.58C48.0273 299.842 49.9455 299.24 51.9 298.78C54.2691 298.12 56.704 297.723 59.16 297.6C59.58 297.78 59.96 299.6 60.06 300.16C60.8 304.16 60.3 304.98 60.88 305.04C66.58 305.6 67.74 307.18 68.14 306.48C69.2491 304.54 70.5419 302.712 72 301.02C72.42 300.6 72.4 300.4 73.66 301.12C77.4244 303.58 80.7957 306.593 83.66 310.06C83.96 310.58 81.36 313.34 79.46 314.96C78.8 315.54 79.74 315.8 81.46 319.08C83.18 322.36 82.7797 323.28 83.6997 323.08C85.4735 322.655 87.2986 322.487 89.12 322.58ZM366.698 155.46C362.505 153.748 358.113 152.584 353.622 152C350.342 151.48 346.48 150.96 343.22 150.54C346.36 146.1 355.658 134.86 357.218 132.12C357.658 131.38 356.822 130.34 356.2 129.72C352.72 126 346 124.6 340.84 123.8C337.88 123.32 325.52 121.8 323.42 122.8C320.9 124 302.26 152 301.7 156.26C301.7 156.98 301.94 157.26 302.64 157.52C305.58 158.6 318.84 160.28 321.8 160.98C317.8 167.98 300.02 191.64 298.28 194.98C297.86 195.82 298.12 196.32 298.62 196.48C300.42 197.195 302.272 197.77 304.16 198.2C304.88 198.42 306.46 197.44 308.76 196.04C319.08 189.84 363.36 160.6 366.76 156.82C366.855 156.732 366.927 156.624 366.978 156.504C367.025 156.384 367.047 156.255 367.04 156.126C367.036 155.997 367 155.871 366.942 155.756C366.884 155.641 366.8 155.54 366.698 155.46ZM323.72 179.46C306.72 190.68 300.98 193.96 300.78 194.1C303.52 189.92 320.54 166.6 323.46 161.02C323.51 160.912 323.537 160.795 323.537 160.675C323.537 160.557 323.508 160.439 323.457 160.332C323.405 160.223 323.33 160.13 323.237 160.055C323.145 159.98 323.037 159.927 322.92 159.9C320.92 159.18 306.36 157.62 302.92 156.4C303.36 152.68 321.52 124.56 323.72 123.44C325.92 122.32 347.26 124.86 351.262 127.72C349.16 131.82 337.56 146.18 335.68 149.52C335.3 150.2 335.18 150.86 335.92 151.04C336.66 151.22 355.458 153.42 359.56 154.76C354.56 158.94 329.32 175.7 323.72 179.38V179.46ZM195.42 57.18C195.42 57.36 195.54 57.58 195.84 58.74C195.918 58.9916 196.092 59.2029 196.323 59.3298C196.553 59.4563 196.825 59.4887 197.08 59.42C197.335 59.3458 197.55 59.1734 197.677 58.9407C197.805 58.7083 197.835 58.4345 197.76 58.18C197.56 57.4 197.38 56.74 197.26 56.42C197.143 56.2003 196.95 56.032 196.715 55.948C196.482 55.8636 196.225 55.8694 195.995 55.9643C195.765 56.0592 195.578 56.2363 195.473 56.4611C195.367 56.6858 195.347 56.9422 195.42 57.18Z" fill="black"/>
</svg>
